<svg width="32" height="32" viewBox="0 0 32 32" fill="none" xmlns="http://www.w3.org/2000/svg">
<g clip-path="url(#clip0_4463_14058)">
<path d="M25 16C25 11.0294 20.9706 7 16 7C11.0294 7 7 11.0294 7 16C7 20.4921 10.2912 24.2155 14.5938 24.8907V18.6016H12.3086V16H14.5938V14.0172C14.5938 11.7616 15.9374 10.5156 17.9932 10.5156C18.9776 10.5156 20.0078 10.6914 20.0078 10.6914V12.9062H18.873C17.755 12.9062 17.4062 13.6001 17.4062 14.3125V16H19.9023L19.5033 18.6016H17.4062V24.8907C21.7088 24.2155 25 20.4921 25 16Z" fill="black"/>
</g>
<defs>
<clipPath id="clip0_4463_14058">
<rect width="18" height="18" fill="white" transform="translate(7 7)"/>
</clipPath>
</defs>
</svg>
