<svg width="32" height="32" viewBox="0 0 32 32" fill="none" xmlns="http://www.w3.org/2000/svg">
<path fill-rule="evenodd" clip-rule="evenodd" d="M5 7H27C28.1 7 29 7.73636 29 8.63636L29 23.3636C29 24.2636 28.1001 25 27 25H5.00012C3.90012 25 3.00005 24.2636 3.00012 23.3636L3 8.63636C2.99997 7.73636 3.89997 7 5 7ZM7 8.63636H5V10.2727H7V8.63636ZM9 10.2727V8.63636H11V10.2727H9ZM13 10.2727V8.63636H15V10.2727H13ZM17 10.2727V8.63636H19V10.2727H17ZM23 8.63636H21V10.2727H23V8.63636ZM25 8.63636V10.2727H27V8.63636H25ZM5 11.0909H27V20.9091H5V11.0909ZM5 23.3636V21.7273H7V23.3636H5ZM9 23.3636V21.7273H11V23.3636H9ZM13 23.3636V21.7273H15V23.3636H13ZM17 23.3636V21.7273H19V23.3636H17ZM21 23.3636V21.7273H23V23.3636H21ZM25 23.3636V21.7273H27V23.3636H25Z" fill="#1E1E1E"/>
<path fill-rule="evenodd" clip-rule="evenodd" d="M16 19C17.6569 19 19 17.6569 19 16C19 14.3431 17.6569 13 16 13C14.3431 13 13 14.3431 13 16C13 17.6569 14.3431 19 16 19ZM15.2795 17.178L17.5761 16.1835C17.7369 16.1139 17.7369 15.8861 17.5761 15.8165L15.2795 14.822C15.1474 14.7648 15 14.8616 15 15.0055V16.9945C15 17.1384 15.1474 17.2352 15.2795 17.178Z" fill="#1E1E1E"/>
</svg>
